<svg height="512pt" viewBox="0 0 512 512" width="512pt" xmlns="http://www.w3.org/2000/svg"><path d="m340.136719 220.667969c30.695312 0 55.667969-24.972657 55.667969-55.667969h-30c0 14.152344-11.515626 25.667969-25.667969 25.667969-14.152344 0-25.667969-11.515625-25.667969-25.667969h-30c0 30.695312 24.972656 55.667969 55.667969 55.667969zm0 0"/><path d="m171.863281 220.667969c30.695313 0 55.667969-24.972657 55.667969-55.667969h-30c0 14.152344-11.515625 25.667969-25.667969 25.667969-14.152343 0-25.667969-11.515625-25.667969-25.667969h-30c0 30.695312 24.972657 55.667969 55.667969 55.667969zm0 0"/><path d="m437.019531 74.980469c-48.351562-48.351563-112.640625-74.980469-181.019531-74.980469s-132.667969 26.628906-181.019531 74.980469c-48.351563 48.351562-74.980469 112.640625-74.980469 181.019531s26.628906 132.667969 74.980469 181.019531c48.351562 48.351563 112.640625 74.980469 181.019531 74.980469s132.667969-26.628906 181.019531-74.980469c48.351563-48.351562 74.980469-112.640625 74.980469-181.019531s-26.628906-132.667969-74.980469-181.019531zm-181.019531-44.980469c108.796875 0 199.875 77.277344 221.25 179.824219l-107.566406 52.597656c-29.917969-19.785156-70.484375-30.945313-113.683594-30.945313-43.0625 0-83.515625 11.085938-113.402344 30.757813l-107.785156-52.707031c21.488281-102.398438 112.496094-179.527344 221.1875-179.527344zm-100.566406 357.675781v-97.878906c25.003906-17.824219 61.972656-28.320313 100.566406-28.320313s75.5625 10.496094 100.566406 28.320313v97.878906c-25.003906 17.828125-61.972656 28.324219-100.566406 28.324219s-75.5625-10.496094-100.566406-28.324219zm-125.433594-131.675781c0-5.101562.1875-10.15625.519531-15.175781l94.914063 46.410156v103.800781l-34.9375 18.6875c-37.511719-40.363281-60.496094-94.40625-60.496094-153.722656zm83.625 175.375 29.5-15.777344c29.839844 19.449219 70.066406 30.402344 112.875 30.402344 42.949219 0 83.304688-11.027344 113.171875-30.601562l29.46875 15.761718c-38.929687 31.761719-88.59375 50.839844-142.640625 50.839844-53.921875 0-103.484375-18.992188-142.375-50.625zm308.101562-21.890625-35.160156-18.804687v-103.117188l94.933594-46.421875c.320312 4.914063.5 9.867187.5 14.859375 0 59.199219-22.890625 113.148438-60.273438 153.484375zm0 0"/></svg>