<svg id="Layer_1_1_" enable-background="new 0 0 64 64" height="512" viewBox="0 0 64 64" width="512" xmlns="http://www.w3.org/2000/svg"><path d="m55 58 3 3 3-3v-27h-6z" fill="#ffc2c8"/><path d="m58 3c-1.657 0-3 1.343-3 3v21h6v-21c0-1.657-1.343-3-3-3z" fill="#ffc2c8"/><path d="m55 27h6v4h-6z" fill="#e16674"/><path d="m7 3h43v58h-43z" fill="#f5e8e5"/><path d="m30 47c7.732 0 14-6.268 14-14s-6.268-14-14-14-14 6.268-14 14 6.268 14 14 14z" fill="#86c8d4"/><path d="m30 19c-3.039 0-5.843.978-8.138 2.623 1.308-.404 2.698-.623 4.138-.623 7.732 0 14 6.268 14 14 0 4.693-2.318 8.837-5.862 11.377 5.711-1.765 9.862-7.085 9.862-13.377 0-7.732-6.268-14-14-14z" fill="#98e2f0"/><path d="m7 3h5v58h-5z" fill="#e6d9d7"/><path d="m22.096 34.533 7.904 6.467 7.904-6.467c1.742-1.425 2.079-3.957.771-5.788-1.444-2.021-4.302-2.389-6.21-.799l-2.465 2.054-2.465-2.054c-1.908-1.59-4.766-1.223-6.21.799-1.308 1.831-.971 4.363.771 5.788z" fill="#e16674"/><circle cx="35" cy="31" fill="#ffb0b8" r="2"/><circle cx="33" cy="35" fill="#ffb0b8" r="1"/><g fill="#756f6d"><path d="m11 15h-6c-1.654 0-3-1.346-3-3s1.346-3 3-3h6c1.654 0 3 1.346 3 3s-1.346 3-3 3zm-6-4c-.551 0-1 .449-1 1s.449 1 1 1h6c.551 0 1-.449 1-1s-.449-1-1-1z"/><path d="m11 25h-6c-1.654 0-3-1.346-3-3s1.346-3 3-3h6c1.654 0 3 1.346 3 3s-1.346 3-3 3zm-6-4c-.551 0-1 .449-1 1s.449 1 1 1h6c.551 0 1-.449 1-1s-.449-1-1-1z"/><path d="m11 35h-6c-1.654 0-3-1.346-3-3s1.346-3 3-3h6c1.654 0 3 1.346 3 3s-1.346 3-3 3zm-6-4c-.551 0-1 .449-1 1s.449 1 1 1h6c.551 0 1-.449 1-1s-.449-1-1-1z"/><path d="m11 45h-6c-1.654 0-3-1.346-3-3s1.346-3 3-3h6c1.654 0 3 1.346 3 3s-1.346 3-3 3zm-6-4c-.551 0-1 .449-1 1s.449 1 1 1h6c.551 0 1-.449 1-1s-.449-1-1-1z"/><path d="m11 55h-6c-1.654 0-3-1.346-3-3s1.346-3 3-3h6c1.654 0 3 1.346 3 3s-1.346 3-3 3zm-6-4c-.551 0-1 .449-1 1s.449 1 1 1h6c.551 0 1-.449 1-1s-.449-1-1-1z"/></g><path d="m58 19c-.552 0-1-.448-1-1v-9c0-.552.448-1 1-1 .552 0 1 .448 1 1v9c0 .552-.448 1-1 1z" fill="#f5e8e5"/></svg>