<svg id="Layer_3" enable-background="new 0 0 64 64" height="512" viewBox="0 0 64 64" width="512" xmlns="http://www.w3.org/2000/svg"><g><path d="m44 8h11v54h-46v-54h11" fill="#a8b0bc"/><path d="m44 11h8v48h-40v-48h8" fill="#c7e2fc"/><path d="m20 11h-8v48h20.176c11.013-4.279 18.824-14.974 18.824-27.5 0-7.967-3.164-15.192-8.297-20.5z" fill="#ebf7fe"/><path d="m42 13h-20c-1.105 0-2-.895-2-2v-2c0-1.105.895-2 2-2h20c1.105 0 2 .895 2 2v2c0 1.105-.895 2-2 2z" fill="#758190"/><path d="m28 7v-1c0-2.209 1.791-4 4-4 2.209 0 4 1.791 4 4v1" fill="#a8b0bc"/><g><path d="m20.728 19.602c-.675 0-1.406-.335-1.972-.967-.397-.444-.658-.981-.733-1.511-.095-.669.108-1.283.558-1.686.837-.746 2.222-.515 3.157.53.935 1.044 1.012 2.449.177 3.197-.331.295-.747.437-1.187.437zm-.49-2.31c.003.003.005.006.008.009.002.003.005.006.008.009-.003-.003-.005-.006-.008-.009-.002-.003-.005-.006-.008-.009z" fill="#d5cec2"/></g><g><path d="m25.271 19.602c-.44 0-.855-.142-1.185-.437-.836-.749-.758-2.153.176-3.197.936-1.044 2.323-1.274 3.157-.53.45.402.653 1.017.558 1.686-.076.53-.336 1.067-.733 1.511-.567.632-1.299.967-1.973.967zm.49-2.31c-.003.003-.006.006-.008.009-.003.003-.006.006-.008.009.003-.003.006-.006.008-.009s.005-.006.008-.009z" fill="#d5cec2"/></g><g><path d="m29.231 24.152c-.483 0-.935-.166-1.275-.506-.426-.426-.595-1.051-.462-1.714.105-.525.395-1.046.816-1.468.992-.991 2.39-1.146 3.183-.354.793.793.638 2.191-.354 3.182-.566.566-1.264.86-1.908.86zm.502-2.283c-.003.003-.006.006-.009.009s-.006.005-.009.008l.009-.009s.006-.005.009-.008z" fill="#d5cec2"/></g><g><path d="m16.768 24.152c-.643 0-1.341-.293-1.908-.859-.991-.991-1.146-2.389-.354-3.182.794-.792 2.191-.637 3.183.354.421.422.711.943.816 1.468.133.663-.036 1.288-.463 1.714-.34.339-.792.505-1.274.505zm-.503-2.283.009.009.009.009c-.003-.003-.006-.006-.009-.009s-.006-.006-.009-.009z" fill="#d5cec2"/></g><g><path d="m34 21h15v2h-15z" fill="#a8b0bc"/></g><g><path d="m34 24h15v2h-15z" fill="#a8b0bc"/></g><g><path d="m34 27h15v2h-15z" fill="#a8b0bc"/></g><path d="m49 48h-4v-4h-4v4h-4v4h4v4h4v-4h4z" fill="#c66b60"/><g><path d="m15 54h20v2h-20z" fill="#a8b0bc"/></g><g><path d="m15 50h20v2h-20z" fill="#a8b0bc"/></g><circle cx="18" cy="35" fill="#f7d881" r="2"/><circle cx="18" cy="43" fill="#96cc7f" r="2"/><g><path d="m33.999 45c-.091 0-.184-.013-.275-.039-.429-.124-.724-.516-.724-.962v-7.128l-1.081 2.522c-.158.368-.519.606-.919.606h-7v-2h6.34l2.74-6.394c.187-.436.657-.677 1.12-.586.466.096.8.505.8.981v8.513l3.152-5.043c.18-.288.494-.465.833-.47h.015c.334 0 .646.167.832.445l1.703 2.555h7.464v2h-8c-.334 0-.646-.167-.832-.445l-1.141-1.711-4.179 6.687c-.186.296-.51.469-.848.469z" fill="#e47c6e"/></g><path d="m25.982 24.178c.004-.06.018-.117.018-.178 0-1.657-1.343-3-3-3s-3 1.343-3 3c0 .061.014.118.018.178-1.172.408-2.018 1.511-2.018 2.822 0 1.657 1.343 3 3 3 .772 0 1.468-.3 2-.779.532.479 1.228.779 2 .779 1.657 0 3-1.343 3-3 0-1.311-.846-2.414-2.018-2.822z" fill="#d5cec2"/><path d="m45.957 48h-.957v-4h-4v4h-4v4h4v1.627c1.879-1.657 3.55-3.545 4.957-5.627z" fill="#e47c6e"/><g><path d="m55 7h-10.781c-.549-.609-1.337-1-2.22-1h-5c0-2.757-2.243-5-5-5s-5 2.243-5 5h-5c-.883 0-1.67.391-2.22 1h-10.779c-.553 0-1 .447-1 1v53.999c0 .553.447 1 1 1h46c.553 0 1-.447 1-1v-53.999c0-.553-.448-1-1-1zm-35.816 5c.414 1.161 1.514 2 2.816 2h20c1.302 0 2.401-.838 2.816-2h6.184v46h-38v-46zm9.816-6.001c0-1.654 1.346-3 3-3s2.999 1.346 2.999 3zm-8 3.001c0-.552.448-1 1-1h20c.552 0 1 .448 1 1v2c0 .552-.448 1-1 1h-20c-.552 0-1-.448-1-1zm33 51.999h-44v-51.999h9v1h-7c-.553 0-1 .447-1 1v48c0 .553.447 1 1 1h40c.553 0 1-.447 1-1v-48c0-.553-.447-1-1-1h-7v-1h9z"/><path d="m18.756 18.635c.566.632 1.297.967 1.972.967.44 0 .856-.142 1.186-.438.835-.748.758-2.152-.177-3.197-.936-1.045-2.32-1.275-3.157-.53-.45.402-.653 1.017-.558 1.686.076.531.336 1.068.734 1.512z"/><path d="m25.271 19.602c.675 0 1.407-.335 1.973-.967.397-.444.658-.981.733-1.511.095-.669-.108-1.283-.558-1.686-.834-.745-2.221-.514-3.157.53-.935 1.044-1.012 2.449-.176 3.197.33.295.745.438 1.185.437z"/><path d="m27.957 23.646c.34.34.792.506 1.275.506.643 0 1.342-.293 1.908-.859.991-.991 1.146-2.389.354-3.182-.792-.792-2.191-.637-3.183.354-.421.421-.711.943-.816 1.468-.134.662.035 1.287.462 1.713z"/><path d="m16.768 24.152c.483 0 .934-.166 1.274-.505.427-.427.596-1.051.463-1.714-.105-.525-.395-1.046-.816-1.468-.992-.99-2.389-1.146-3.183-.354-.793.793-.638 2.191.354 3.182.566.565 1.265.859 1.908.859z"/><path d="m34 21h15v2h-15z"/><path d="m34 24h15v2h-15z"/><path d="m34 27h15v2h-15z"/><path d="m46 44c0-.553-.447-1-1-1h-4c-.553 0-1 .447-1 1v3h-3c-.553 0-1 .447-1 1v4c0 .553.447 1 1 1h3v3c0 .553.447 1 1 1h4c.553 0 1-.447 1-1v-3h3c.553 0 1-.447 1-1v-4c0-.553-.447-1-1-1h-3zm2 5v2h-3c-.552 0-1 .448-1 1v3h-2v-3c0-.552-.448-1-1-1h-3v-2h3c.552 0 1-.448 1-1v-3h2v3c0 .552.448 1 1 1z"/><path d="m15 54h20v2h-20z"/><path d="m15 50h20v2h-20z"/><path d="m18 37.999c1.654 0 3-1.346 3-3s-1.346-3-3-3-3 1.346-3 3 1.345 3 3 3zm0-3.999c.551 0 1 .448 1 1 0 .551-.448 1-1 1s-1-.448-1-1 .448-1 1-1z"/><path d="m18 45.999c1.654 0 3-1.346 3-3s-1.346-3-3-3-3 1.346-3 3 1.345 3 3 3zm0-3.999c.551 0 1 .448 1 1 0 .551-.448 1-1 1s-1-.448-1-1 .448-1 1-1z"/><path d="m24 38v2h7c.4 0 .761-.238.919-.606l1.081-2.523v7.128c0 .446.295.838.724.961.091.027.184.04.275.04.338 0 .662-.172.848-.47l4.179-6.687 1.141 1.711c.186.278.498.445.832.445h8v-2h-7.464l-1.703-2.555c-.186-.278-.499-.444-.832-.444-.005 0-.01 0-.015 0-.339.005-.653.182-.833.47l-3.152 5.043v-8.513c0-.475-.334-.884-.799-.98-.463-.091-.933.15-1.12.586l-2.741 6.394z"/><path d="m19.027 23.533c-1.236.701-2.027 2.018-2.027 3.466 0 2.206 1.794 4 4 4 .705 0 1.393-.19 2-.545.606.355 1.295.545 2 .545 2.206 0 4-1.794 4-4 0-1.448-.791-2.765-2.027-3.466-.232-1.987-1.925-3.533-3.973-3.533s-3.742 1.546-3.973 3.533zm1.989.588c-.002-.027-.013-.096-.016-.121 0-1.103.897-2 2-2s2 .897 2 1.961c-.004.027-.015.132-.017.16-.025.446.248.854.669 1.001.806.28 1.348 1.035 1.348 1.877 0 1.103-.897 2-2 2-.622 0-1.066-.283-1.33-.521-.19-.171-.43-.257-.67-.257-.239 0-.479.086-.669.257-.264.238-.709.521-1.331.521-1.103 0-2-.897-2-2 0-.842.541-1.597 1.346-1.877.422-.147.695-.556.67-1.001z"/></g></g></svg>