<svg height="512" viewBox="0 0 64 64" width="512" xmlns="http://www.w3.org/2000/svg"><g id="Bulletin_board" data-name="Bulletin board"><rect fill="#9cdd05" height="40" rx="2" width="58" x="3" y="3"/><path d="m59 57a2.006 2.006 0 0 1 2 2 2.015 2.015 0 0 1 -2 2h-8a2.006 2.006 0 0 1 -2-2 2.015 2.015 0 0 1 2-2z" fill="#fee9ab"/><path d="m53 43h4v14h-4z" fill="#ff7956"/><g fill="#fee9ab"><path d="m43 17h12v16h-12z"/><path d="m26 17h12v16h-12z"/><path d="m9 17h12v16h-12z"/><path d="m13 57a2.006 2.006 0 0 1 2 2 2.015 2.015 0 0 1 -2 2h-8a2.006 2.006 0 0 1 -2-2 2.015 2.015 0 0 1 2-2z"/></g><path d="m7 43h4v14h-4z" fill="#ff7956"/><path d="m59 44a3 3 0 0 0 3-3v-36a3 3 0 0 0 -3-3h-54a3 3 0 0 0 -3 3v36a3 3 0 0 0 3 3h1v12h-1a3 3 0 0 0 0 6h8a3 3 0 0 0 0-6h-1v-12h40v12h-1a3 3 0 0 0 0 6h8a3 3 0 0 0 0-6h-1v-12zm-55-3v-36a1 1 0 0 1 1-1h54a1 1 0 0 1 1 1v36a1 1 0 0 1 -1 1h-54a1 1 0 0 1 -1-1zm10 18a1 1 0 0 1 -1 1h-8a1 1 0 0 1 0-2h8a1 1 0 0 1 1 1zm-4-3h-2v-12h2zm50 3a1 1 0 0 1 -1 1h-8a1 1 0 0 1 0-2h8a1 1 0 0 1 1 1zm-4-3h-2v-12h2z"/><path d="m26 6h12v2h-12z"/><path d="m22 10h20v2h-20z"/><path d="m21 16h-12a1 1 0 0 0 -1 1v16a1 1 0 0 0 1 1h12a1 1 0 0 0 1-1v-16a1 1 0 0 0 -1-1zm-1 16h-10v-14h10z"/><path d="m38 16h-12a1 1 0 0 0 -1 1v16a1 1 0 0 0 1 1h12a1 1 0 0 0 1-1v-16a1 1 0 0 0 -1-1zm-1 16h-10v-14h10z"/><path d="m55 16h-12a1 1 0 0 0 -1 1v16a1 1 0 0 0 1 1h12a1 1 0 0 0 1-1v-16a1 1 0 0 0 -1-1zm-1 16h-10v-14h10z"/><path d="m8 36h4v2h-4z"/><path d="m14 36h8v2h-8z"/><path d="m25 36h2v2h-2z"/><path d="m29 36h10v2h-10z"/><path d="m42 36h2v2h-2z"/><path d="m46 36h2v2h-2z"/><path d="m50 36h6v2h-6z"/><path d="m12 20h2v2h-2z"/><path d="m16 20h2v2h-2z"/><path d="m12 24h6v2h-6z"/><path d="m12 28h6v2h-6z"/><path d="m29 20h6v2h-6z"/><path d="m29 24h6v2h-6z"/><path d="m29 28h6v2h-6z"/><path d="m46 20h2v2h-2z"/><path d="m50 20h2v2h-2z"/><path d="m46 24h6v2h-6z"/><path d="m46 28h2v2h-2z"/><path d="m50 28h2v2h-2z"/></g></svg>