<?xml version="1.0"?>
<svg xmlns="http://www.w3.org/2000/svg" viewBox="0 0 512 512" width="512" height="512"><g id="Filled_outline" data-name="Filled outline"><path d="M57.339,151.472l-4.956-3.966A16,16,0,0,0,42.389,144H40a16.014,16.014,0,0,0-16,16.042v.3a15.306,15.306,0,0,0,6.122,12.248l5.944,4.458A49.874,49.874,0,0,1,56,216.992v.506a47.9,47.9,0,0,1-8.047,26.573L32.062,267.907A48,48,0,0,0,24,294.533V392H56V297.689a32,32,0,0,1,5.374-17.751l12.9-19.357A81.693,81.693,0,0,0,88,215.265h0A81.692,81.692,0,0,0,57.339,151.472Z" style="fill:#fbab1f"/><path d="M471,350.5s13.5-29,15.707-50.708-.094-37.268-9.886-52.781c8.856-18.707,3.778-41.427-12.065-53.975l-3.229-2.558c0-20.237-18.339-34.847-36.762-29.288L408,166.249C432,200,440,248,426.954,295.467L408,352l52.333,23Z" style="fill:#ef7800"/><path d="M120,152V254.874A32,32,0,0,1,105.75,281.5L77.436,300.376A120,120,0,0,0,24,400.222V488H224V152l-7.029,2.343A43.183,43.183,0,0,0,192,176H152a43.183,43.183,0,0,0-24.971-21.657Z" style="fill:#ffb431"/><path d="M360,200V120h24l24-56L355.674,31.3a48,48,0,0,0-25.44-7.3H253.766a48,48,0,0,0-25.44,7.3L176,64l24,56h24V448h0a24,24,0,0,0-24,24v16H488V431.2A191.2,191.2,0,0,0,432,296h0l-55.029-55.029A57.94,57.94,0,0,1,360,200Z" style="fill:#f88400"/><rect x="224" y="168" width="136" height="32" style="fill:#d65246"/><rect x="272" y="88" width="32" height="24" rx="7.488" ry="7.488" style="fill:#7a432a"/><rect x="144" y="200" width="16" height="16"/><rect x="184" y="200" width="16" height="16"/><path d="M480.837,354.967a198.206,198.206,0,0,0-43.18-64.624l-.948-.948c9.492-42.006,3.5-85.236-16.206-118.563l6.567-1.983a19.533,19.533,0,0,1,17.431,3.13,22.715,22.715,0,0,1,9.029,18.5,8,8,0,0,0,3.031,6.27l3.233,2.562c12.964,10.264,17.084,28.883,9.8,44.274a8,8,0,0,0,.466,7.694c8.389,13.292,10.828,26.667,8.7,47.7a113.425,113.425,0,0,1-4.821,21.506l15.276,4.759a128.993,128.993,0,0,0,5.463-24.648c2.315-22.843-.269-38.908-8.9-54.211,7.952-21.2,1.57-45.678-16.036-59.615l-.4-.32a38.912,38.912,0,0,0-15.284-27.317,35.39,35.39,0,0,0-31.594-5.6l-16.76,5.06a8,8,0,0,0-4.207,12.3c20.041,28.178,27.756,66.528,21.573,104.854l-40.427-40.427A49.617,49.617,0,0,1,368,200V128h16a8,8,0,0,0,7.353-4.849l24-56a8,8,0,0,0-3.113-9.935l-52.326-32.7A55.944,55.944,0,0,0,330.234,16H253.766a55.944,55.944,0,0,0-29.68,8.512l-7.2,4.5,8.481,13.568,7.2-4.5a39.968,39.968,0,0,1,21.2-6.08h76.468a39.968,39.968,0,0,1,21.2,6.08l46.512,29.07L378.725,112H368V80a7.994,7.994,0,0,0-.845-3.578l-16-32-14.31,7.156L352,81.889V160H232V81.889l15.155-30.311-14.31-7.156-16,32A7.994,7.994,0,0,0,216,80v32H205.275L186.054,67.15l26.815-16.759L204.39,36.823,171.76,57.216a8,8,0,0,0-3.113,9.935l24,56A8,8,0,0,0,200,128h16V441.012A32.058,32.058,0,0,0,192,472V360H176V480H160a31.86,31.86,0,0,0-8-21.132V360H136v89.013A31.94,31.94,0,0,0,128,448H112V433.941a89.352,89.352,0,0,0-26.343-63.6L74.343,381.657A73.455,73.455,0,0,1,96,433.941V456a8,8,0,0,0,8,8h24a16.019,16.019,0,0,1,16,16H32V400.22a111.894,111.894,0,0,1,49.878-93.184l28.313-18.882A39.943,39.943,0,0,0,128,254.87V163.311a35.206,35.206,0,0,1,16.845,16.267A8,8,0,0,0,152,184h40a8,8,0,0,0,7.156-4.422,35,35,0,0,1,8.856-11.221L197.728,156.1a50.846,50.846,0,0,0-10.4,11.9H156.667a51.251,51.251,0,0,0-27.111-21.251l-7.03-2.339A8,8,0,0,0,112,152V254.87a23.973,23.973,0,0,1-10.688,19.974L73.006,293.721A128.011,128.011,0,0,0,32,338.219V294.534a39.876,39.876,0,0,1,6.718-22.189L54.61,248.508A55.73,55.73,0,0,0,64,217.5v-.506a58.186,58.186,0,0,0-23.135-46.343l-5.943-4.458A7.342,7.342,0,0,1,32,160.344v-.3A8.032,8.032,0,0,1,40,152h2.385a8.029,8.029,0,0,1,5,1.753l4.957,3.966A73.333,73.333,0,0,1,80,215.265a73.466,73.466,0,0,1-12.377,40.879L54.718,275.5a40.031,40.031,0,0,0-5,10.6l15.314,4.637a23.97,23.97,0,0,1,3-6.358l12.905-19.357A89.413,89.413,0,0,0,96,215.265a89.255,89.255,0,0,0-33.663-70.04l-4.957-3.966A24.086,24.086,0,0,0,42.389,136H40a24.05,24.05,0,0,0-24,24.042v.3a23.421,23.421,0,0,0,9.322,18.648l5.945,4.458A42.11,42.11,0,0,1,48,216.992v.506a39.779,39.779,0,0,1-6.7,22.135L25.406,263.47A55.816,55.816,0,0,0,16,294.534V488a8,8,0,0,0,8,8H410V480H328v-8a16.019,16.019,0,0,1,16-16h24a8,8,0,0,0,8-8V405.255a100.588,100.588,0,0,1,29.657-71.6l-11.314-11.314A116.491,116.491,0,0,0,360,405.255V440H344a31.793,31.793,0,0,0-16,4.305V296H312V480H256v-8a16.019,16.019,0,0,1,16-16,8,8,0,0,0,8-8V296H264V441.012A32.057,32.057,0,0,0,240,472v8H208v-8a16.019,16.019,0,0,1,16-16,8,8,0,0,0,8-8V208H352.5a65.428,65.428,0,0,0,18.817,38.627l55.029,55.03A182,182,0,0,1,480,431.2V480H424v16h64a8,8,0,0,0,8-8V431.2A198.213,198.213,0,0,0,480.837,354.967ZM232,176H352v16H232Z"/><path d="M248,144h16a31.933,31.933,0,0,0,24-10.856A31.933,31.933,0,0,0,312,144h16V128H312a16,16,0,0,1-13.886-8.083A15.51,15.51,0,0,0,312,104.512V95.488A15.506,15.506,0,0,0,296.512,80H279.488A15.506,15.506,0,0,0,264,95.488v9.024a15.51,15.51,0,0,0,13.886,15.405A16,16,0,0,1,264,128H248Zm32-48h16v8H280Z"/><rect x="248" y="64" width="16" height="16"/><rect x="312" y="64" width="16" height="16"/></g></svg>
